{
  "scene": 0,
  "scenes": [
    {
      "nodes": [
        0
      ]
    }
  ],
  "asset": {
    "version": "2.0",
    "generator": "https://github.com/mikedh/trimesh"
  },
  "accessors": [
    {
      "componentType": 5125,
      "type": "SCALAR",
      "bufferView": 0,
      "count": 120000,
      "max": [
        23277
      ],
      "min": [
        0
      ]
    },
    {
      "componentType": 5126,
      "type": "VEC3",
      "byteOffset": 0,
      "bufferView": 1,
      "count": 23278,
      "max": [
        0.46604347229003906,
        0.9900235533714294,
        0.47250571846961975
      ],
      "min": [
        -0.4743771255016327,
        -0.9982041120529175,
        -0.4791806638240814
      ]
    },
    {
      "componentType": 5126,
      "type": "VEC2",
      "byteOffset": 0,
      "bufferView": 2,
      "count": 23278,
      "max": [
        0.999549150466919,
        1
      ],
      "min": [
        0,
        0.00044167041778564453
      ]
    },
    {
      "componentType": 5126,
      "count": 23278,
      "type": "VEC3",
      "byteOffset": 0,
      "bufferView": 3,
      "max": [
        0.9999933242797852,
        0.9999957084655762,
        0.9997124671936035
      ],
      "min": [
        -0.999796986579895,
        -1,
        -0.9999637603759766
      ]
    }
  ],
  "meshes": [
    {
      "name": "tmpr2c7j5t0.ply",
      "extras": {
        "processed": true
      },
      "primitives": [
        {
          "attributes": {
            "POSITION": 1,
            "TEXCOORD_0": 2,
            "NORMAL": 3
          },
          "indices": 0,
          "mode": 4,
          "material": 0
        }
      ]
    }
  ],
  "images": [
    {
      "uri": "CHT baby color_img0.png"
    }
  ],
  "textures": [
    {
      "source": 0
    }
  ],
  "materials": [
    {
      "pbrMetallicRoughness": {
        "baseColorTexture": {
          "index": 0
        },
        "baseColorFactor": [
          1,
          1,
          1,
          1
        ],
        "roughnessFactor": 0.9036020036098448
      },
      "doubleSided": false
    }
  ],
  "nodes": [
    {
      "name": "world",
      "children": [
        1
      ]
    },
    {
      "name": "tmpr2c7j5t0.ply",
      "mesh": 0
    }
  ],
  "buffers": [
    {
      "uri": "CHT_baby_color_data.bin",
      "byteLength": 1224896
    }
  ],
  "bufferViews": [
    {
      "buffer": 0,
      "byteOffset": 0,
      "byteLength": 480000
    },
    {
      "buffer": 0,
      "byteOffset": 480000,
      "byteLength": 279336
    },
    {
      "buffer": 0,
      "byteOffset": 759336,
      "byteLength": 186224
    },
    {
      "buffer": 0,
      "byteOffset": 945560,
      "byteLength": 279336
    }
  ]
}